PathFileType	4	(X/Y/Z)	C:/Users/beibeiliu/ov580/test_trc/capture2\sequence.20_training_dense_right.trc
DataRate	CameraRate	NumFrames	NumMarkers	Units	OrigDataRate	OrigDataStartFrame	OrigNumFrames
120	120	16	19	mm	120	85	337
Frame#	Time	ThumbCMC			ThumbMCP			ThumbIP			ThumbTip			IndexMCP			IndexPIP			IndexTip			MiddleMCP			MiddlePIP			MiddleTip			RingMCP			RingPIP			RingTip			PinkyMCP			PinkyPIP			PinkyTip			BackHand1			BackHand2			BackHand3	
		X0	Y0	Z0	X1	Y1	Z1	X2	Y2	Z2	X3	Y3	Z3	X4	Y4	Z4	X5	Y5	Z5	X6	Y6	Z6	X7	Y7	Z7	X8	Y8	Z8	X9	Y9	Z9	X10	Y10	Z10	X11	Y11	Z11	X12	Y12	Z12	X13	Y13	Z13	X14	Y14	Z14	X15	Y15	Z15	X16	Y16	Z16	X17	Y17	Z17	X18	Y18	Z18	
84	0.7	148.853	63.0155	23.2539	134.707	67.5799	-6.13086	121.056	52.4691	-29.6529	109.59	30.039	-25.7019	156.311	35.9765	-46.9366	150.005	30.2	-70.4047	148.608	22.6175	-93.1096	144.201	18.2013	-45.6253	141.716	13.0361	-73.8397	139.053	4.85566	-99.6734	133.13	5.5968	-40.6855	126.228	-3.75045	-61.4586	126.773	-2.6017	-87.7532	115.112	-4.45081	-19.915	110.667	-12.4181	-43.08	112.011	-15.9361	-66.403	141.751	5.76461	7.2608	145.163	4.87728	37.3105	159.918	26.7129	15.6855	
85	0.708333	148.457	61.8556	22.7222	134.53	69.7077	-5.54514	120.736	52.2987	-25.3157	107.031	31.1022	-28.2066	152.297	34.9893	-43.1594	149.318	30.5495	-68.1409	146.753	21.5475	-92.1411	143.216	18.0866	-49.0678	137.961	12.3905	-69.0117	137.234	5.90545	-100.12	126.554	1.89481	-39.0271	125.104	-0.154248	-59.9796	120.248	-7.15116	-87.4594	111.78	-4.61344	-23.3304	107.003	-11.1118	-41.8112	106.853	-16.7754	-68.1246	138.606	5.79254	11.8653	141.819	6.15255	41.9454	158.656	25.9304	21.1659	
86	0.716667	148.221	63.5835	23.221	133.449	73.3109	-4.61433	119.408	55.3594	-29.0156	104.993	33.6227	-29.0511	150.598	34.6006	-45.3191	145.868	32.3859	-65.2458	142.394	20.4434	-92.4449	139.674	17.0615	-45.8324	135.762	13.5266	-70.8704	134.425	9.4621	-100.173	124.497	2.73039	-39.7753	122.788	0.825065	-62.8222	119.956	-2.22324	-89.4571	108.615	-2.62389	-21.5597	105.393	-8.99602	-43.1582	103.88	-17.9626	-63.4928	134.379	5.73718	10.4748	141.269	3.77294	40.6933	158.211	25.9666	17.7004	
87	0.725	145.588	64.6575	27.2556	131.94	70.9534	-5.10244	116.873	57.0454	-28.2644	102.582	31.2505	-25.9504	147.289	35.2682	-43.7581	143.603	34.5187	-64.8777	143.603	28.2289	-88.8284	138.212	19.8982	-47.7102	134.982	19.3523	-69.8456	131.355	10.9842	-95.9033	123.465	6.21505	-38.5537	118.147	0.65196	-61.4808	116.623	-1.62482	-86.1937	104.762	-3.27649	-20.8226	101.06	-7.49423	-41.8224	97.3484	-19.5727	-64.7943	132.916	4.58769	13.3232	137.365	7.11823	39.4477	154.968	28.2727	21.8493	
88	0.733333	143.074	67.2042	29.409	129.416	76.9595	-3.93575	115.736	60.4646	-23.5858	101.671	35.5453	-21.3932	144.368	38.7901	-41.8903	140.559	35.8563	-67.7361	140.117	31.2756	-91.6248	133.898	19.9677	-46.4406	130.944	19.6859	-67.8371	130.592	15.342	-97.076	122.464	11.6411	-39.8968	117.522	5.65742	-63.3171	113.086	-1.4188	-89.1897	105.314	1.55386	-20.3025	98.514	-6.9652	-42.8173	96.84	-16.9177	-66.5799	131.054	10.3014	9.1428	137.364	9.99149	37.6344	154.555	31.1547	20.0264	
89	0.741667	141.525	68.1153	26.1154	126.756	78.5215	-0.554873	113.42	63.4447	-25.0572	100.717	41.1791	-21.7123	143.85	44.9474	-41.3315	141.614	45.7191	-64.0162	137.287	33.3676	-89.5134	132.553	25.7497	-43.9137	130.728	25.6223	-70.4628	128.331	21.7675	-98.8716	121.547	14.9895	-39.3592	115.201	9.1798	-59.9673	114.917	7.58821	-86.4011	102.759	2.42446	-21.096	100.077	-0.841974	-40.6272	97.8207	-11.867	-62.1479	128.921	10.3218	13.4083	133.509	9.67813	39.0786	154.577	34.4362	18.2872	
90	0.75	138.709	73.685	31.1133	123.757	82.0599	-0.446368	111.115	66.1063	-24.7984	97.7469	41.5867	-24.2054	145.46	52.824	-41.3814	138.431	49.8664	-62.1946	137.71	44.8724	-85.9357	132.868	31.948	-41.6185	130.427	33.6438	-68.5776	128.146	29.2053	-94.2182	119.748	18.4555	-36.0476	116.372	16.983	-64.0543	113.237	14.3564	-89.5756	104.175	9.31304	-20.5145	99.1928	2.41848	-43.0486	99.4002	-1.98023	-64.2149	129.825	16.4464	9.8451	135.846	16.1272	43.2029	154.15	39.3711	20.4302	
91	0.758333	134.317	74.3764	33.8849	120.604	86.4974	2.54357	108.306	74.4487	-16.7719	97.7275	48.606	-24.3875	142.387	58.0322	-37.7584	140.334	60.2113	-63.8948	138.038	54.5319	-85.8302	133.398	40.7446	-42.4646	131.367	41.7376	-70.852	129.678	39.7125	-95.9455	122	27.0454	-38.0264	117.063	23.1656	-64.4888	115.668	25.9933	-87.0653	104.834	11.9218	-21.0481	103.826	10.7025	-46.5341	104.013	7.06189	-67.1805	129.655	19.5145	9.68403	133.76	16.6359	41.6751	151.061	44.4951	25.454	
92	0.766667	131.373	80.5788	35.235	115.968	89.5168	9.78022	105.769	81.6769	-16.2047	97.7418	54.476	-18.334	142.993	69.6346	-34.7841	141.69	70.587	-61.1416	138.497	64.9443	-83.6115	134.8	49.6426	-40.8551	133.067	53.8727	-67.6549	129.352	48.8682	-92.2658	123.048	36.2864	-37.1358	119.718	33.1601	-59.2313	116.425	34.6661	-90.9901	109.04	18.525	-25.1963	108.359	19.0517	-43.1516	109.296	17.2372	-70.8206	129.523	24.346	11.4099	132.697	19.2007	42.7532	147.473	50.2534	27.1436	
93	0.775	127.29	84.3344	40.1388	111.183	98.1664	13.7905	104.085	85.2706	-15.0741	95.6574	60.4555	-21.9235	141.086	78.1362	-30.1316	141.046	82.755	-54.0486	137.67	76.3215	-80.6601	135.502	60.8189	-36.2099	131.867	61.2709	-66.7482	131.042	64.7801	-93.0248	123.069	44.0022	-36.7563	120.471	44.2649	-58.5779	120.088	49.1045	-83.4574	109.858	27.1689	-23.7529	109.642	25.6244	-45.6258	110.787	27.4355	-71.7064	128.734	28.7952	10.3256	133.359	27.7999	44.7256	147.967	56.0132	26.2984	
94	0.783333	121.12	87.4975	47.128	106.479	103.608	20.1837	100.457	94.0655	-11.7282	94.7065	64.1335	-16.6051	137.643	85.1179	-27.6286	138.326	90.3841	-52.8528	139.892	92.14	-74.5683	134.086	69.3287	-35.6267	131.454	73.9571	-63.1998	131.121	77.1098	-90.6086	124.107	50.8749	-35.5249	120.857	52.4903	-58.03	120.521	56.6085	-83.6555	110.713	36.9648	-20.5367	112.097	38.1275	-45.0128	114.185	39.7444	-73.3967	127.84	35.9544	12.2969	131.406	30.7483	39.4847	146.688	63.0849	33.6717	
95	0.791667	117.071	94.9604	49.5245	101.907	109.535	23.0558	97.509	99.5279	-9.71851	95.4303	72.8325	-13.0913	137.529	97.7155	-19.532	137.505	102.044	-46.5568	138.874	105.066	-69.1517	132.196	76.7208	-30.7759	132.163	86.1755	-57.0068	131.623	89.1677	-83.9886	125.418	62.2239	-30.4846	123.686	65.9061	-55.0037	123.213	71.493	-81.2121	113.986	45.405	-21.869	113.847	48.3015	-47.0019	115.641	52.1615	-69.5131	131.713	44.8977	14.8617	133.322	36.3927	41.7682	142.405	68.3843	32.5182	
96	0.8	112.169	99.7897	53.7306	98.0677	108.533	25.8411	94.4186	105.267	-1.30946	95.0713	78.7352	-13.1546	135.311	109.617	-14.4278	135.883	117.095	-36.4822	137.722	114.541	-61.9531	133.461	93.5104	-29.8598	132.199	96.9276	-53.6785	133.189	105.927	-76.4739	125.26	70.7246	-28.456	125.459	79.7129	-56.1797	126.85	91.087	-78.2271	115.931	50.1168	-21.8363	116.874	63.403	-44.4421	121.038	64.5495	-66.0554	132.046	53.7163	18.6778	134.72	45.7132	43.5154	140.646	76.6282	41.3304	
97	0.808333	104.7	101.976	58.605	92.6579	111.459	32.1679	89.8895	113.61	2.41243	95.6234	84.9583	-10.0178	132.094	116.36	-7.41571	132.502	126.446	-30.4095	136.874	129.729	-54.4556	134.211	105.331	-22.7705	133.367	113.631	-44.1188	134.805	122.317	-72.0659	127.709	84.2981	-27.478	127.568	89.4161	-48.7589	128.82	100.648	-73.0085	118.839	63.8471	-19.1073	119.132	71.3058	-44.7073	124.146	79.5615	-66.6942	132.669	60.1527	18.2451	135.885	50.3768	45.0176	137.214	84.8994	44.8876	
98	0.816667	99.5805	101.557	66.6204	85.9834	116.295	39.4653	89.3129	115.429	10.011	96.9018	92.679	-9.10297	130.281	124.514	0.894964	131.919	134.727	-21.7435	138.151	146.15	-44.1945	134.811	112.632	-15.1454	135.572	125.282	-38.638	136.741	136.962	-58.9913	129.173	92.1952	-18.8031	130.147	102.428	-40.9231	131.681	114.95	-63.1343	121.902	68.3512	-17.2826	123.134	86.46	-38.0257	125.898	94.5329	-59.4402	133.227	68.5502	25.7319	134.605	52.2968	50.5122	134.213	91.7084	50.1017	
99	0.825	98.2131	103.576	70.6491	85.418	117.358	44.1754	90.554	121.064	13.0454	99.9398	100.487	-5.8006	128.631	135.384	11.8235	130.913	147.078	-8.21392	138.003	156.486	-34.0154	135.46	124.728	-4.47968	135.859	134.842	-25.8981	139.42	150.728	-48.8441	131.656	103.98	-13.0209	133.609	114.045	-36.1486	135.617	127.287	-57.0248	126.943	79.7496	-14.6076	126.953	91.5734	-34.9482	132.248	106.853	-53.0352	134.125	74.6658	27.0617	135.895	55.5645	52.1657	131.765	93.5952	57.4541	
